<?xml version="1.0" encoding="UTF-8"?>
<svg version="1.1" xmlns="http://www.w3.org/2000/svg" width="328" height="101">
<path d="M0 0 C2.27968617 1.10727614 3.65514222 2.04623977 5.1875 4.0625 C5.1875 4.7225 5.1875 5.3825 5.1875 6.0625 C-0.7525 9.3625 -6.6925 12.6625 -12.8125 16.0625 C-11.018125 16.31 -9.22375 16.5575 -7.375 16.8125 C4.39992996 18.80262901 14.93966736 24.51075548 22.6171875 33.77734375 C28.94360015 42.98369052 30.1875 50.85115168 30.1875 62.0625 C4.7775 62.0625 -20.6325 62.0625 -46.8125 62.0625 C-40.73785273 81.50601779 -40.73785273 81.50601779 -25.8125 93.0625 C-18.60172512 95.89530442 -11.92387412 96.08726769 -4.6875 93.375 C6.15301387 88.51603706 10.89340079 81.65069842 16.1875 71.0625 C20.1475 71.0625 24.1075 71.0625 28.1875 71.0625 C26.24723348 80.76383258 20.511113 87.60789069 12.66796875 93.41015625 C0.64941573 101.41621598 -13.24894738 103.12596866 -27.33203125 100.375 C-38.11728813 97.05219942 -48.33735307 90.29769948 -54.3515625 80.57421875 C-60.11188167 69.47465638 -61.89935703 58.06396547 -58.3125 45.875 C-53.72389831 33.7733709 -45.81603197 25.73140005 -34.25 20.375 C-31.2895448 19.07954704 -28.35740219 17.89996507 -25.3125 16.8125 C-18.98606072 13.64928036 -13.87557957 8.65912075 -8.50390625 4.10546875 C-3.51449615 0.07809991 -3.51449615 0.07809991 0 0 Z M-39.57421875 35.19921875 C-43.57807803 40.75420995 -44.17557931 43.69635689 -45.8125 51.0625 C-25.0225 51.0625 -4.2325 51.0625 17.1875 51.0625 C13.71839738 39.4988246 9.71314531 30.82203417 -1.05859375 24.80859375 C-15.99012803 17.95203321 -29.54455033 23.034632 -39.57421875 35.19921875 Z " fill="#000000" transform="translate(200.8125,-0.0625)"/>
<path d="M0 0 C9.77902236 6.62066244 16.0146588 14.85297071 19.66015625 26.05859375 C21.97227249 38.28904042 19.812657 49.47773743 13.328125 60.01953125 C6.71501891 69.22536876 -2.31708378 74.91888464 -13.28125 77.9140625 C-27.5400728 79.83351942 -40.97167092 78.51866169 -52.89453125 69.89453125 C-62.73147185 62.00981586 -68.81331309 52.11139798 -70.2421875 39.42578125 C-70.69000122 28.0811671 -67.62153956 17.69481865 -59.921875 9.26953125 C-59.15875 8.40328125 -58.395625 7.53703125 -57.609375 6.64453125 C-41.65702289 -7.4528962 -18.78085671 -11.12288706 0 0 Z M-49.921875 12.26953125 C-56.1846014 22.50088373 -58.55745935 32.97831258 -56.45703125 44.91015625 C-53.84494784 54.74024529 -48.54938988 63.66164658 -39.921875 69.26953125 C-31.75240314 73.34218216 -24.24705366 74.64998728 -15.421875 72.20703125 C-6.64261606 68.91289395 -0.07577112 62.60257514 4.078125 54.26953125 C8.78380987 42.71788117 9.94932691 31.92365205 5.078125 20.26953125 C0.42630387 10.61808927 -5.9538616 3.53451606 -16.2265625 -0.0625 C-29.15790707 -3.26722452 -41.96761801 1.48662137 -49.921875 12.26953125 Z " fill="#000000" transform="translate(307.921875,22.73046875)"/>
<path d="M0 0 C7.24342808 4.57293094 16.06857344 11.6354147 18.19140625 20.32421875 C18.2996875 21.06671875 18.40796875 21.80921875 18.51953125 22.57421875 C14.31844907 23.31923825 10.68652727 23.6080956 6.51953125 22.57421875 C4.1815344 19.79280871 2.80815239 16.96257002 1.22265625 13.69921875 C-2.18222197 7.45173577 -8.50403004 3.16307372 -15.25390625 1.01171875 C-23.81944118 -0.67133373 -30.94173657 0.25562367 -38.48046875 4.57421875 C-39.53234375 5.13109375 -40.58421875 5.68796875 -41.66796875 6.26171875 C-49.48484306 12.68892651 -53.87985977 22.50071368 -54.86328125 32.4453125 C-55.34735218 43.48291898 -53.28558109 53.09249614 -46.171875 61.79296875 C-39.77456291 68.53009187 -32.40328976 72.50085616 -23.04296875 73.01171875 C-14.85808498 72.66949364 -8.114394 69.03194892 -2.23046875 63.50390625 C1.19311802 59.72879048 3.65029743 55.46751866 5.76953125 50.8515625 C7.51953125 48.57421875 7.51953125 48.57421875 10.4375 48.0859375 C12.05591797 48.17294922 12.05591797 48.17294922 13.70703125 48.26171875 C14.79371094 48.30683594 15.88039063 48.35195312 17 48.3984375 C17.83144531 48.45644531 18.66289063 48.51445313 19.51953125 48.57421875 C18.22348226 54.79525392 15.61506674 58.76600307 11.51953125 63.57421875 C10.76349609 64.49074219 10.76349609 64.49074219 9.9921875 65.42578125 C3.46158755 72.67490687 -6.82350607 77.82757055 -16.56103516 78.77709961 C-18.80952666 78.8776623 -21.04232327 78.90317119 -23.29296875 78.88671875 C-24.08759521 78.8818042 -24.88222168 78.87688965 -25.70092773 78.87182617 C-38.0771329 78.62518744 -48.50739677 73.96246314 -57.62890625 65.5859375 C-66.38101905 56.07678541 -69.27878053 45.14139201 -68.828125 32.515625 C-67.87127845 21.66778042 -62.63857996 12.22212924 -54.73046875 4.82421875 C-39.57583946 -7.66458665 -16.99991422 -9.77160424 0 0 Z " fill="#000000" transform="translate(68.48046875,22.42578125)"/>
<path d="M0 0 C2 2 2 2 2.1953125 4.1640625 C2.17210937 4.97617187 2.14890625 5.78828125 2.125 6.625 C2.10695312 7.44226563 2.08890625 8.25953125 2.0703125 9.1015625 C2.04710937 9.72804688 2.02390625 10.35453125 2 11 C1.02160156 10.89300781 0.04320312 10.78601562 -0.96484375 10.67578125 C-10.0639609 9.84370859 -17.44267366 9.33432447 -24.875 15.3125 C-28.65580715 20.09410904 -30.36796293 24.0828862 -30.43237305 30.18896484 C-30.45216721 31.38975677 -30.47196136 32.59054871 -30.49235535 33.82772827 C-30.49874527 35.10918732 -30.50513519 36.39064636 -30.51171875 37.7109375 C-30.5285811 39.04759353 -30.54673343 40.38423386 -30.56611633 41.72085571 C-30.61345433 45.2224232 -30.64336777 48.72392699 -30.66955566 52.22570801 C-30.69944358 55.80554785 -30.74594539 59.38516856 -30.79101562 62.96484375 C-30.87686402 69.976452 -30.94275355 76.98810046 -31 84 C-34.63 84 -38.26 84 -42 84 C-42 56.61 -42 29.22 -42 1 C-38.37 1 -34.74 1 -31 1 C-30.67 3.64 -30.34 6.28 -30 9 C-28.7934375 7.88625 -28.7934375 7.88625 -27.5625 6.75 C-19.16490412 -0.07304665 -10.60020651 -1.12684519 0 0 Z " fill="#000000" transform="translate(140,16)"/>
</svg>
