<svg width="2344" height="795" viewBox="0 0 2344 795" fill="none" xmlns="http://www.w3.org/2000/svg">
<path d="M772.646 277.673V195.607H705.256V782.157H772.646V402.868C772.646 374.356 779.793 346.208 793.989 321.48C794.412 320.744 794.84 320.011 795.27 319.279C813.173 288.92 842.21 266.544 876.341 257.756C919.74 246.584 965.98 249.408 1009.76 264.533V210.175C1009.76 201.613 1003.68 194.243 995.262 192.683C968.72 187.761 921.022 183.788 868.429 204.855C816.137 225.8 785.554 260.864 772.646 277.673Z" fill="#231F20"/>
<path d="M2026.87 763.437C1896.6 763.437 1791 643.032 1791 494.497C1791 345.964 1896.6 225.557 2026.87 225.557C2157.13 225.557 2262.73 345.964 2262.73 494.497C2262.73 643.032 2157.13 763.437 2026.87 763.437ZM2024.99 195.606C1848.89 195.606 1706.14 329.701 1706.14 495.122C1706.14 660.541 1848.89 794.636 2024.99 794.636C2201.1 794.636 2343.85 660.541 2343.85 495.122C2343.85 329.701 2201.1 195.606 2024.99 195.606Z" fill="#231F20"/>
<path d="M1100.03 443.953C1102.84 427.118 1107.03 410.844 1112.45 395.282C1147.08 295.856 1232.2 225.556 1331.74 225.556C1431.28 225.556 1516.41 295.856 1551.04 395.282C1556.45 410.844 1560.65 427.118 1563.45 443.953H1100.03ZM1648.73 495.121C1648.73 477.673 1647.14 460.577 1644.09 443.953C1641.03 427.217 1636.49 410.944 1630.58 395.282C1586.82 278.958 1468.71 195.605 1329.87 195.605C1191.03 195.605 1072.92 278.958 1029.16 395.282C1023.25 410.944 1018.71 427.217 1015.65 443.953C1012.6 460.577 1011.01 477.673 1011.01 495.121C1011.01 500.561 1011.16 505.978 1011.47 511.344C1012.87 535.968 1017.44 559.79 1024.79 582.48C1064.59 705.28 1186.11 794.636 1329.87 794.636C1473.63 794.636 1595.15 705.28 1634.95 582.48H1554.69C1522.73 687.809 1434.99 763.436 1331.74 763.436C1228.5 763.436 1140.75 687.809 1108.79 582.48C1101.95 559.978 1097.67 536.117 1096.32 511.344H1648.27C1648.58 505.978 1648.73 500.561 1648.73 495.121Z" fill="#231F20"/>
<path d="M624.087 582.48C584.288 705.281 462.76 794.636 319.005 794.636C175.251 794.636 53.7228 705.281 13.9242 582.48C4.96415 554.849 0.146851 525.509 0.146851 495.121C0.146851 460.116 6.53615 426.508 18.2922 395.284C62.0588 278.958 180.168 195.606 319.005 195.606C457.843 195.606 575.952 278.958 619.719 395.284H540.172C505.541 295.856 420.416 225.557 320.877 225.557C221.339 225.557 136.214 295.856 101.583 395.284C90.8868 425.982 85.0095 459.453 85.0095 494.497C85.0095 525.309 89.5522 554.912 97.9255 582.48C129.887 687.809 217.632 763.437 320.877 763.437C424.123 763.437 511.868 687.809 543.829 582.48H624.087Z" fill="#231F20"/>
<path d="M1261.85 133.207L1276.83 148.183L1467.77 40.856L1434.06 0.930622L1261.85 133.207Z" fill="#231F20"/>
</svg>
